<?xml version="1.0" encoding="UTF-8"?>
<svg width="583px" height="74px" viewBox="0 0 583 74" version="1.1" xmlns="http://www.w3.org/2000/svg" xmlns:xlink="http://www.w3.org/1999/xlink">
    <title>Revocalize AI</title>
    <g id="Page-1" stroke="none" strokeWidth="1" fill="none" fillRule="evenodd">
        <g id="Artboard" transform="translate(-623.000000, -609.000000)" fill="#000000" fillRule="nonzero" stroke="#000000">
            <g id="Revocalize-AI" transform="translate(624.000000, 610.000000)">
                <path d="M30.5,0.5 C34.8288241,0.5 38.683545,1.09450026 42.0651752,2.27807082 C45.4646941,3.46790244 48.3357467,5.10190813 50.6811698,7.17539811 C53.0354481,9.25671664 54.8433449,11.6965873 56.1057525,14.4943556 C57.3679072,17.2915633 58,20.2932958 58,23.5 C58,26.0919753 57.5899852,28.547355 56.7714952,30.8664101 C55.9520228,33.1882484 54.7570242,35.3052605 53.1863631,37.2173697 C51.6200808,39.1241482 49.6970032,40.7934899 47.4155676,42.2236435 C45.3194604,43.5376212 42.9499119,44.5644429 40.3060261,45.3020712 L57.9392475,71.5 L43.2309174,71.5 L26.7309174,46.5 L12,46.5 L12,71.5 L-0.5,71.5 L-0.5,0.5 L30.5,0.5 Z M30.5,12.5 L12,12.5 L12,34.5 L30.5,34.5 C35.6042365,34.5 39.3224341,33.5306894 41.6211234,31.5233832 C43.8816798,29.5493763 45,26.8710336 45,23.5 C45,20.1289664 43.8816798,17.4506237 41.6211234,15.4766168 C39.3224341,13.4693106 35.6042365,12.5 30.5,12.5 Z" id="Shape"></path>
                <path d="M86.3,18.5 C89.9703997,18.5 93.4196462,19.1975852 96.6481254,20.5909289 C99.8742402,21.9832521 102.692506,23.8853991 105.103553,26.2964466 C107.516222,28.7091148 109.402945,31.5630947 110.76224,34.8593854 C112.119894,38.1516968 112.8,41.6983938 112.8,45.5 L112.8,49.5 L71.4107849,49.5 C71.8074756,51.3372666 72.4151631,52.9894664 73.236253,54.4556983 C74.1387475,56.0672956 75.2662762,57.4377094 76.6200922,58.5658894 C77.9738398,59.6940124 79.4725541,60.5483204 81.1164101,61.1285048 C82.7635321,61.709842 84.4914548,62 86.3,62 C88.8312775,62 91.0066843,61.6634931 92.8244383,60.9818354 C94.6309647,60.304388 96.0850205,59.5175503 97.1821464,58.6140349 C98.5601908,57.5798569 99.6690442,56.3802596 100.525257,55 L112.531392,55 C111.226765,58.4765487 109.337178,61.5241306 106.863507,64.1433118 C105.84065,65.1664568 104.692841,66.1795321 103.409822,67.1924414 C102.114008,68.2154524 100.614041,69.1199047 98.9089528,69.9042452 C97.2128229,70.684465 95.3133894,71.3127911 93.2101304,71.7877205 C91.1099928,72.2619451 88.8066914,72.5 86.3,72.5 C82.6296003,72.5 79.1803538,71.8024148 75.9518746,70.4090711 C72.7257598,69.0167479 69.9074941,67.1146009 67.4964466,64.7035534 C65.0837784,62.2908852 63.1970549,59.4369053 61.8377597,56.1406146 C60.4801055,52.8483032 59.8,49.3016062 59.8,45.5 C59.8,41.6983938 60.4801055,38.1516968 61.8377597,34.8593854 C63.1970549,31.5630947 65.0837784,28.7091148 67.4964466,26.2964466 C69.9074941,23.8853991 72.7257598,21.9832521 75.9518746,20.5909289 C79.1803538,19.1975852 82.6296003,18.5 86.3,18.5 Z M86.3,29 C84.6199488,29 82.9883372,29.2583602 81.4052009,29.7753027 C79.8249971,30.2912877 78.373769,31.0491062 77.0515541,32.0488297 C75.7334247,33.0454641 74.6246793,34.2674797 73.7245283,35.7141509 C72.9226259,37.0029226 72.3248836,38.4317512 71.9297552,40 L100.687886,40 C100.410982,38.7744697 99.9655505,37.5491351 99.3527864,36.3236068 C98.6487045,34.9154431 97.6882526,33.6835999 96.4721567,32.6275166 C95.2452286,31.5620264 93.7915582,30.6915937 92.1127685,30.0136209 C90.4335242,29.3354646 88.4954198,29 86.3,29 Z" id="Shape"></path>
                <path d="M124.984736,19.5 L135.984736,61 L141.715264,61 L152.715264,19.5 L164.755752,19.5 L150.481242,71.5 L127.218758,71.5 L112.944248,19.5 L124.984736,19.5 Z" id="Path"></path>
                <path d="M191.9,18.5 C195.703055,18.5 199.2511,19.1973256 202.544665,20.5894509 C205.839405,21.9820729 208.692021,23.8849144 211.103553,26.2964466 C213.515086,28.7079789 215.417927,31.560595 216.810549,34.8553349 C218.202674,38.1488995 218.9,41.6969451 218.9,45.5 C218.9,49.3030549 218.202674,52.8511005 216.810549,56.1446651 C215.417927,59.439405 213.515086,62.2920211 211.103553,64.7035534 C208.692021,67.1150856 205.839405,69.0179271 202.544665,70.4105491 C199.2511,71.8026744 195.703055,72.5 191.9,72.5 C188.096945,72.5 184.5489,71.8026744 181.255335,70.4105491 C177.960595,69.0179271 175.107979,67.1150856 172.696447,64.7035534 C170.284914,62.2920211 168.382073,59.439405 166.989451,56.1446651 C165.597326,52.8511005 164.9,49.3030549 164.9,45.5 C164.9,41.6969451 165.597326,38.1488995 166.989451,34.8553349 C168.382073,31.560595 170.284914,28.7079789 172.696447,26.2964466 C175.107979,23.8849144 177.960595,21.9820729 181.255335,20.5894509 C184.5489,19.1973256 188.096945,18.5 191.9,18.5 Z M191.9,29 C189.703974,29 187.685044,29.3856533 185.844029,30.1608177 C184.010817,30.932696 182.434491,32.0256864 181.115804,33.4408628 C179.792605,34.8608816 178.761852,36.5885608 178.019679,38.62147 C177.271659,40.6703938 176.9,42.9635359 176.9,45.5 C176.9,48.0364641 177.271659,50.3296062 178.019679,52.37853 C178.761852,54.4114392 179.792605,56.1391184 181.115804,57.5591372 C182.434491,58.9743136 184.010817,60.067304 185.844029,60.8391823 C187.685044,61.6143467 189.703974,62 191.9,62 C194.096026,62 196.114956,61.6143467 197.955971,60.8391823 C199.789183,60.067304 201.365509,58.9743136 202.684196,57.5591372 C204.007395,56.1391184 205.038148,54.4114392 205.780321,52.37853 C206.528341,50.3296062 206.9,48.0364641 206.9,45.5 C206.9,42.9635359 206.528341,40.6703938 205.780321,38.62147 C205.038148,36.5885608 204.007395,34.8608816 202.684196,33.4408628 C201.365509,32.0256864 199.789183,30.932696 197.955971,30.1608177 C196.114956,29.3856533 194.096026,29 191.9,29 Z" id="Shape"></path>
                <path d="M247.2,18.5 C249.779331,18.5 252.120851,18.7728709 254.224939,19.3158613 C256.332525,19.8597545 258.21875,20.5745334 259.884358,21.4583255 C261.559838,22.3473557 263.012411,23.3739761 264.243312,24.5364934 C265.459373,25.6849958 266.540145,26.8336509 267.490434,27.9876525 C269.794468,30.867694 271.413398,34.2047406 272.344872,38 L260.329256,38 C259.830033,36.2608571 258.962902,34.7062059 257.725081,33.3308108 C256.759191,32.2361358 255.43666,31.241464 253.76295,30.3402355 C252.090041,29.4394385 249.900204,29 247.2,29 C245.273115,29 243.458428,29.3846812 241.756254,30.1554771 C240.054009,30.9263048 238.576746,32.0184952 237.324173,33.4316538 C236.063293,34.854185 235.063165,36.5849638 234.319679,38.62147 C233.571659,40.6703938 233.2,42.9635359 233.2,45.5 C233.2,48.0364641 233.571659,50.3296062 234.319679,52.37853 C235.063165,54.4150362 236.063293,56.145815 237.324173,57.5683462 C238.576746,58.9815048 240.054009,60.0736952 241.756254,60.8445229 C243.458428,61.6153188 245.273115,62 247.2,62 C249.97047,62 252.229025,61.5587683 253.969841,60.6561227 C255.712606,59.7524669 257.102893,58.7548878 258.137024,57.6561277 C259.365796,56.3590898 260.265665,54.8065426 260.839091,53 L272.341944,53 C271.409886,56.8656253 269.791904,60.2355154 267.485965,63.1178536 C266.538552,64.268284 265.455974,65.4019745 264.237862,66.5185771 C263.0085,67.6454922 261.557739,68.6537579 259.884358,69.5416745 C258.21875,70.4254666 256.332525,71.1402455 254.224939,71.6841387 C252.120851,72.2271291 249.779331,72.5 247.2,72.5 C243.531542,72.5 240.101167,71.8364913 236.90839,70.5118286 C233.70928,69.1845382 230.953078,67.3121159 228.6389,64.8958422 C226.329126,62.4841667 224.510872,59.6314851 223.186092,56.3365196 C221.863325,53.046559 221.2,49.4346497 221.2,45.5 C221.2,41.5653503 221.863325,37.953441 223.186092,34.6634804 C224.510872,31.3685149 226.329126,28.5158333 228.6389,26.1041578 C230.953078,23.6878841 233.70928,21.8154618 236.90839,20.4881714 C240.101167,19.1635087 243.531542,18.5 247.2,18.5 Z" id="Path"></path>
                <path d="M298.5,18.5 C301.170461,18.5 303.531871,18.9142318 305.585695,19.7357617 C307.626537,20.5520985 309.326271,21.4380619 310.689009,22.3919878 C311.997932,23.3191418 313.153739,24.3121487 314.15706,25.3703301 L314.5,25.742 L314.5,19.5 L326,19.5 L326,71.5 L314.5,71.5 L314.5,65.009 L314.48161,65.0284451 C313.446404,66.0736606 312.41462,67.0488075 311.277715,67.9535168 L310.7,68.4 C309.33774,69.4216949 307.635875,70.3600522 305.592308,71.2115385 C303.536566,72.0680974 301.172993,72.5 298.5,72.5 C295.027769,72.5 291.811283,71.8516917 288.849867,70.5581995 C285.887351,69.264227 283.299426,67.4424253 281.086055,65.0928468 C278.87607,62.7468628 277.140319,59.9088457 275.882229,56.5766075 C274.628912,53.2570126 274,49.5651036 274,45.5 C274,41.4348964 274.628912,37.7429874 275.882229,34.4233925 C277.140319,31.0911543 278.87607,28.2531372 281.086055,25.9071532 C283.299426,23.5575747 285.887351,21.735773 288.849867,20.4418005 C291.811283,19.1483083 295.027769,18.5 298.5,18.5 Z M300.5,29 C296.121668,29 292.605946,30.3897485 289.963854,33.1929432 C287.304622,36.0143238 286,40.1245693 286,45.5 C286,50.8754307 287.304622,54.9856762 289.963854,57.8070568 C292.605946,60.6102515 296.121668,62 300.5,62 C304.615144,62 307.978604,60.6077361 310.584053,57.8092907 C313.211332,54.987398 314.5,50.8764665 314.5,45.5 C314.5,40.1235335 313.211332,36.012602 310.584053,33.1907093 C307.978604,30.3922639 304.615144,29 300.5,29 Z" id="Shape"></path>
                <path d="M345.8,0.5 L345.8,61 L357.3,61 L357.3,71.5 L334.3,71.5 L334.3,0.5 L345.8,0.5 Z" id="Path"></path>
                <path d="M372.1,19.5 L372.1,71.5 L360.6,71.5 L360.6,19.5 L372.1,19.5 Z M366.3,-0.5 C368.170899,-0.5 369.772231,0.165124696 371.103553,1.49644661 C372.434875,2.82776852 373.1,4.42910053 373.1,6.3 C373.1,8.17468959 372.432461,9.76062761 371.098677,11.058363 C369.768707,12.3523884 368.169311,13 366.3,13 C364.426882,13 362.84287,12.349977 361.546447,11.0535534 C360.250023,9.75712974 359.6,8.17311828 359.6,6.3 C359.6,4.43068933 360.247612,2.83129306 361.541637,1.50132252 C362.839372,0.167538962 364.42531,-0.5 366.3,-0.5 Z" id="Shape"></path>
                <path d="M418.9,19.5 L418.9,29.689813 L391.4,60.689813 L419.9,61 L419.9,71.5 L376.4,71.5 L376.4,61.310187 L403.9,30.310187 L377.4,30 L377.4,19.5 L418.9,19.5 Z" id="Path"></path>
                <path d="M447.7,18.5 C451.3704,18.5 454.819646,19.1975852 458.048125,20.5909289 C461.27424,21.9832521 464.092506,23.8853991 466.503553,26.2964466 C468.916222,28.7091148 470.802945,31.5630947 472.16224,34.8593854 C473.519894,38.1516968 474.2,41.6983938 474.2,45.5 L474.2,49.5 L432.810785,49.5 C433.207476,51.3372666 433.815163,52.9894664 434.636253,54.4556983 C435.538747,56.0672956 436.666276,57.4377094 438.020092,58.5658894 C439.37384,59.6940124 440.872554,60.5483204 442.51641,61.1285048 C444.163532,61.709842 445.891455,62 447.7,62 C450.231278,62 452.406684,61.6634931 454.224438,60.9818354 C456.030965,60.304388 457.48502,59.5175503 458.582146,58.6140349 C459.960191,57.5798569 461.069044,56.3802596 461.925257,55 L473.931392,55 C472.626765,58.4765487 470.737178,61.5241306 468.263507,64.1433118 C467.24065,65.1664568 466.092841,66.1795321 464.809822,67.1924414 C463.514008,68.2154524 462.014041,69.1199047 460.308953,69.9042452 C458.612823,70.684465 456.713389,71.3127911 454.61013,71.7877205 C452.509993,72.2619451 450.206691,72.5 447.7,72.5 C444.0296,72.5 440.580354,71.8024148 437.351875,70.4090711 C434.12576,69.0167479 431.307494,67.1146009 428.896447,64.7035534 C426.483778,62.2908852 424.597055,59.4369053 423.23776,56.1406146 C421.880106,52.8483032 421.2,49.3016062 421.2,45.5 C421.2,41.6983938 421.880106,38.1516968 423.23776,34.8593854 C424.597055,31.5630947 426.483778,28.7091148 428.896447,26.2964466 C431.307494,23.8853991 434.12576,21.9832521 437.351875,20.5909289 C440.580354,19.1975852 444.0296,18.5 447.7,18.5 Z M447.7,29 C446.019949,29 444.388337,29.2583602 442.805201,29.7753027 C441.224997,30.2912877 439.773769,31.0491062 438.451554,32.0488297 C437.133425,33.0454641 436.024679,34.2674797 435.124528,35.7141509 C434.322626,37.0029226 433.724884,38.4317512 433.329755,40 L462.087886,40 C461.810982,38.7744697 461.365551,37.5491351 460.752786,36.3236068 C460.048705,34.9154431 459.088253,33.6835999 457.872157,32.6275166 C456.645229,31.5620264 455.191558,30.6915937 453.512768,30.0136209 C451.833524,29.3354646 449.89542,29 447.7,29 Z" id="Shape"></path>
                <path d="M544.685024,0.5 L563.44931,71.5 L550.415861,71.5 L545.615861,53.5 L514.190388,53.5 L509.690388,71.5 L497.155163,71.5 L515.412305,0.5 L544.685024,0.5 Z M534.914621,12.5 L524.690388,12.5 L517.440388,41.5 L542.551288,41.5 L534.914621,12.5 Z" id="Shape"></path>
                <path d="M580.6,0.5 L580.6,71.5 L568.1,71.5 L568.1,0.5 L580.6,0.5 Z" id="Path"></path>
            </g>
        </g>
    </g>
</svg>