<svg width="25" height="25" viewBox="0 0 25 25" fill="none" xmlns="http://www.w3.org/2000/svg">
<path d="M15.6263 17.7083H20.8346L19.3712 16.2449C18.9743 15.848 18.7513 15.3097 18.7513 14.7484V11.4583C18.7513 8.73705 17.0121 6.42197 14.5846 5.56397V5.20833C14.5846 4.05774 13.6519 3.125 12.5013 3.125C11.3507 3.125 10.418 4.05774 10.418 5.20833V5.56397C7.99048 6.42197 6.2513 8.73705 6.2513 11.4583V14.7484C6.2513 15.3097 6.02833 15.848 5.63144 16.2449L4.16797 17.7083H9.3763M15.6263 17.7083V18.75C15.6263 20.4759 14.2272 21.875 12.5013 21.875C10.7754 21.875 9.3763 20.4759 9.3763 18.75V17.7083M15.6263 17.7083H9.3763" stroke="#AAADB3" stroke-width="1.2" stroke-linecap="round" stroke-linejoin="round"/>
</svg>
