<svg width="20" height="20" viewBox="0 0 20 20" fill="none" xmlns="http://www.w3.org/2000/svg">
<g id="Icon/Solid/check-circle">
<path id="Subtract" fill-rule="evenodd" clip-rule="evenodd" d="M18 10C18 14.4183 14.4183 18 10 18C5.58172 18 2 14.4183 2 10C2 5.58172 5.58172 2 10 2C14.4183 2 18 5.58172 18 10ZM6.75837 13.9499C6.56224 13.9613 6.36934 13.8961 6.22037 13.768C5.92656 13.4725 5.92656 12.9951 6.22037 12.6996L8.92179 9.99814L6.22034 7.29668C5.94815 6.97882 5.98515 6.50045 6.30302 6.22823C6.58672 5.98528 7.00512 5.98528 7.28879 6.22823L9.99818 8.92175L12.6538 6.26613C12.9594 5.98019 13.4389 5.99608 13.7248 6.30167C13.9834 6.57801 13.9985 7.00275 13.7601 7.29671L11.0698 9.98706L13.7601 12.6617C14.0656 12.9477 14.0814 13.4272 13.7954 13.7327C13.784 13.7449 13.7723 13.7567 13.7601 13.768C13.6017 13.9058 13.3931 13.9717 13.1842 13.9499C12.9854 13.949 12.7949 13.8701 12.6538 13.7301L9.99024 11.0666L7.28879 13.768C7.14174 13.8942 6.95194 13.9593 6.75837 13.9499Z" fill="#797A80"/>
</g>
</svg>
