<svg width="20" height="20" viewBox="0 0 20 20" fill="none" xmlns="http://www.w3.org/2000/svg">
<path d="M17.0859 8.49199H14.6776C12.7026 8.49199 11.0943 6.88366 11.0943 4.90866V2.50033C11.0943 2.04199 10.7193 1.66699 10.2609 1.66699H6.7276C4.16094 1.66699 2.08594 3.33366 2.08594 6.30866V13.692C2.08594 16.667 4.16094 18.3337 6.7276 18.3337H13.2776C15.8443 18.3337 17.9193 16.667 17.9193 13.692V9.32532C17.9193 8.86699 17.5443 8.49199 17.0859 8.49199ZM9.61094 11.2753C9.48594 11.4003 9.32761 11.4587 9.16927 11.4587C9.01094 11.4587 8.85261 11.4003 8.72761 11.2753L8.1276 10.6753V14.167C8.1276 14.5087 7.84427 14.792 7.5026 14.792C7.16094 14.792 6.8776 14.5087 6.8776 14.167V10.6753L6.27761 11.2753C6.03594 11.517 5.63594 11.517 5.39427 11.2753C5.1526 11.0337 5.1526 10.6337 5.39427 10.392L7.06094 8.72532C7.11927 8.67532 7.1776 8.63366 7.24427 8.60032C7.26094 8.59199 7.28594 8.58366 7.30261 8.57532C7.3526 8.55866 7.4026 8.55032 7.46094 8.54199C7.48594 8.54199 7.5026 8.54199 7.5276 8.54199C7.59427 8.54199 7.66094 8.55866 7.72761 8.58366C7.73594 8.58366 7.73594 8.58366 7.74427 8.58366C7.81094 8.60866 7.8776 8.65866 7.92761 8.70866C7.93594 8.71699 7.94427 8.71699 7.94427 8.72532L9.61094 10.392C9.8526 10.6337 9.8526 11.0337 9.61094 11.2753Z" fill="white"/>
<path d="M14.526 7.34207C15.3177 7.3504 16.4177 7.3504 17.3594 7.3504C17.8344 7.3504 18.0844 6.79207 17.751 6.45873C16.551 5.2504 14.401 3.0754 13.1677 1.84207C12.826 1.5004 12.2344 1.73373 12.2344 2.20873V5.11707C12.2344 6.33373 13.2677 7.34207 14.526 7.34207Z" fill="white"/>
</svg>
