<svg width="40" height="40" viewBox="0 0 40 40" fill="none" xmlns="http://www.w3.org/2000/svg">
<path d="M28.0026 15H21.2526V25.4167C21.2526 26.1 20.6859 26.6667 20.0026 26.6667C19.3193 26.6667 18.7526 26.1 18.7526 25.4167V15H12.0026C6.66927 15 3.33594 18.3333 3.33594 23.6667V27.9833C3.33594 33.3333 6.66927 36.6667 12.0026 36.6667H27.9859C33.3193 36.6667 36.6526 33.3333 36.6526 28V23.6667C36.6693 18.3333 33.3359 15 28.0026 15Z" fill="white"/>
<path d="M21.251 7.60039L24.701 11.0504C24.951 11.3004 25.2677 11.4171 25.5844 11.4171C25.901 11.4171 26.2177 11.3004 26.4677 11.0504C26.951 10.5671 26.951 9.76706 26.4677 9.28372L20.8844 3.70039C20.401 3.21706 19.601 3.21706 19.1177 3.70039L13.5344 9.28372C13.051 9.76706 13.051 10.5671 13.5344 11.0504C14.0177 11.5337 14.8177 11.5337 15.301 11.0504L18.751 7.60039V15.0004H21.251V7.60039Z" fill="white"/>
</svg>
