<svg width="33" height="35" viewBox="0 0 33 35" fill="none" xmlns="http://www.w3.org/2000/svg">
<path d="M32.4529 8.94102V32.134C32.4529 33.4096 31.4152 34.4541 30.1481 34.4541H8.50798C7.24078 34.4541 6.20312 33.4096 6.20312 32.134V24.907H24.4858C25.1716 24.907 25.7299 24.3451 25.7299 23.6533V14.6053C25.7299 13.9135 25.1716 13.3529 24.4858 13.3529H6.20312V2.86797C6.20312 1.59238 7.24078 0.547852 8.50798 0.547852H24.115V7.52461C24.115 8.30664 24.7452 8.94102 25.5221 8.94102H32.4529Z" fill="#160E24"/>
<path d="M30.1484 35.001H8.50829C6.93822 35.001 5.66016 33.7145 5.66016 32.134V24.907C5.66016 24.6049 5.90327 24.3602 6.20343 24.3602H24.4861C24.8731 24.3602 25.1869 24.043 25.1869 23.6533V14.6053C25.1869 14.2156 24.8718 13.8998 24.4861 13.8998H6.20343C5.90327 13.8998 5.66016 13.6551 5.66016 13.3529V2.86797C5.66016 1.2875 6.93822 0.000976562 8.50829 0.000976562H24.1153C24.4154 0.000976562 24.6586 0.245703 24.6586 0.547852V7.52461C24.6586 8.00449 25.0456 8.39414 25.5224 8.39414H32.4532C32.7534 8.39414 32.9965 8.63887 32.9965 8.94102V32.134C32.9965 33.7145 31.7184 35.001 30.1484 35.001ZM6.74671 25.4539V32.134C6.74671 33.1115 7.53718 33.9072 8.50829 33.9072H30.1484C31.1195 33.9072 31.9099 33.1115 31.9099 32.134V9.48789H25.5224C24.4467 9.48789 23.572 8.60742 23.572 7.52461V1.09473H8.50829C7.53718 1.09473 6.74671 1.89043 6.74671 2.86797V12.8061H24.4861C25.4721 12.8061 26.2734 13.6127 26.2734 14.6053V23.6533C26.2734 24.6459 25.4721 25.4539 24.4861 25.4539H6.74671Z" fill="white"/>
<path d="M25.7306 14.6049V23.6529C25.7306 24.3447 25.1724 24.9066 24.4865 24.9066H1.78707C1.09983 24.9066 0.542969 24.3447 0.542969 23.6529V14.6049C0.542969 13.9131 1.09983 13.3525 1.78707 13.3525H24.4865C25.1724 13.3525 25.7306 13.9131 25.7306 14.6049Z" fill="url(#paint0_radial_957_6769)"/>
<path d="M24.4869 25.4535H1.78738C0.801333 25.4535 0 24.6455 0 23.6529V14.6049C0 13.6123 0.801333 12.8057 1.78738 12.8057H24.4869C25.4729 12.8057 26.2742 13.6123 26.2742 14.6049V23.6529C26.2742 24.6455 25.4729 25.4535 24.4869 25.4535ZM1.78738 13.8994C1.4003 13.8994 1.08655 14.2152 1.08655 14.6049V23.6529C1.08655 24.0426 1.4003 24.3598 1.78738 24.3598H24.4869C24.8739 24.3598 25.1877 24.0426 25.1877 23.6529V14.6049C25.1877 14.2152 24.8726 13.8994 24.4869 13.8994H1.78738Z" fill="white"/>
<path d="M2.5268 20.839H3.7328V22H2.5268V20.839ZM4.76991 22V17.464H5.87691V18.175C6.09291 17.716 6.55191 17.392 7.18191 17.392C7.90191 17.392 8.39691 17.698 8.60391 18.256C8.81091 17.788 9.38691 17.392 10.1069 17.392C11.0879 17.392 11.7179 18.103 11.7179 19.066V22H10.6109V19.399C10.6109 18.76 10.2779 18.337 9.74691 18.337C9.16191 18.337 8.79291 18.76 8.79291 19.399V22H7.69491V19.399C7.69491 18.76 7.36191 18.337 6.83091 18.337C6.23691 18.337 5.87691 18.76 5.87691 19.399V22H4.76991ZM12.7768 23.836V17.464H13.8838V18.031C14.1538 17.644 14.6398 17.392 15.2428 17.392C16.5478 17.392 17.3488 18.346 17.3488 19.732C17.3488 21.118 16.4938 22.072 15.1618 22.072C14.6128 22.072 14.1268 21.856 13.8838 21.505V23.836H12.7768ZM13.8118 19.732C13.8118 20.569 14.2978 21.118 15.0358 21.118C15.7648 21.118 16.2508 20.569 16.2508 19.732C16.2508 18.895 15.7648 18.346 15.0358 18.346C14.2978 18.346 13.8118 18.895 13.8118 19.732ZM20.2784 22.072C18.9824 22.072 17.9384 21.289 17.9384 20.011H19.0904C19.0904 20.677 19.6214 21.037 20.2784 21.037C20.9804 21.037 21.4214 20.695 21.4214 20.128C21.4214 19.57 20.9804 19.246 20.2784 19.246H19.7114V18.256H20.2604C20.8274 18.256 21.1874 17.914 21.1874 17.437C21.1874 16.951 20.7914 16.654 20.1974 16.654C19.6304 16.654 19.2254 16.96 19.2074 17.59H18.0824C18.1004 16.366 19.0814 15.628 20.2244 15.628C21.4394 15.628 22.3484 16.384 22.3484 17.32C22.3484 17.923 22.0154 18.436 21.5474 18.679C22.1774 18.904 22.6004 19.453 22.6004 20.155C22.6004 21.37 21.5204 22.072 20.2784 22.072Z" fill="white"/>
<path d="M32.4551 8.94102H25.5243C24.7474 8.94102 24.1172 8.30664 24.1172 7.52461V0.547852L32.4551 8.94102Z" fill="#160E24"/>
<path d="M32.4582 9.48767C32.4568 9.48767 32.4568 9.48767 32.4554 9.48767H25.5246C24.4489 9.48767 23.5742 8.60721 23.5742 7.52439V0.547636C23.5742 0.326151 23.706 0.126542 23.9097 0.0417764C24.1121 -0.0429892 24.347 0.00349517 24.5019 0.160722L32.8086 8.52244C32.9267 8.62225 33.0014 8.77264 33.0014 8.9408C33.0014 9.24295 32.7583 9.48767 32.4582 9.48767ZM24.6608 1.86834V7.52439C24.6608 8.00428 25.0479 8.39392 25.5246 8.39392H31.1434L24.6608 1.86834Z" fill="white"/>
<defs>
<radialGradient id="paint0_radial_957_6769" cx="0" cy="0" r="1" gradientUnits="userSpaceOnUse" gradientTransform="translate(-4.63676 11.3831) rotate(20.8029) scale(36.7224 18.6193)">
<stop stop-color="#FFC542"/>
<stop offset="0.420236" stop-color="#FE496C"/>
<stop offset="0.707757" stop-color="#8835FF"/>
<stop offset="0.910465" stop-color="#1BD6FF"/>
</radialGradient>
</defs>
</svg>
