<svg width="14" height="14" viewBox="0 0 14 14" fill="none" xmlns="http://www.w3.org/2000/svg">
<path d="M7.57248 3.45719L8.32415 4.96052C8.42665 5.16552 8.69998 5.37052 8.92776 5.40469L10.2887 5.63247C11.16 5.78052 11.365 6.40691 10.7386 7.0333L9.67943 8.09816C9.5029 8.27469 9.4004 8.62205 9.45735 8.8726L9.75915 10.188C9.99832 11.2244 9.44596 11.6287 8.52915 11.0877L7.25359 10.3304C7.02012 10.1937 6.64429 10.1937 6.41082 10.3304L5.12957 11.082C4.21276 11.623 3.6604 11.2187 3.89957 10.1823L4.20137 8.86691C4.25832 8.62205 4.15582 8.27469 3.97929 8.09247L2.92582 7.03899C2.29943 6.4126 2.50443 5.78052 3.37568 5.63816L4.73665 5.41038C4.96443 5.37052 5.23776 5.17122 5.34026 4.96622L6.09193 3.46288C6.49623 2.64288 7.16818 2.64288 7.57248 3.45719Z" fill="#FFC950"/>
</svg>
