<svg width="20" height="20" viewBox="0 0 20 20" fill="none" xmlns="http://www.w3.org/2000/svg">
<g filter="url(#filter0_b_1164_5484)">
<path d="M10 18.275C5.8 18.275 2.375 14.8583 2.375 10.65V9.08333C2.375 8.75833 2.64167 8.5 2.95833 8.5C3.275 8.5 3.54167 8.76667 3.54167 9.08333V10.65C3.54167 14.2083 6.43333 17.1 9.99167 17.1C13.55 17.1 16.4417 14.2083 16.4417 10.65V9.08333C16.4417 8.75833 16.7083 8.5 17.025 8.5C17.3417 8.5 17.6083 8.76667 17.6083 9.08333V10.65C17.625 14.8583 14.2 18.275 10 18.275Z" fill="white"/>
<path d="M10.0013 1.66699C7.2013 1.66699 4.91797 3.95033 4.91797 6.75033V10.6587C4.91797 13.4587 7.2013 15.742 10.0013 15.742C12.8013 15.742 15.0846 13.4587 15.0846 10.6587V6.75033C15.0846 3.95033 12.8013 1.66699 10.0013 1.66699ZM11.818 8.82533C11.7596 9.05033 11.5513 9.20033 11.3263 9.20033C11.2846 9.20033 11.2346 9.19199 11.193 9.18366C10.343 8.95033 9.44297 8.95033 8.59297 9.18366C8.31797 9.25866 8.04297 9.10033 7.96797 8.82533C7.89297 8.55866 8.0513 8.27533 8.3263 8.20033C9.3513 7.91699 10.4346 7.91699 11.4596 8.20033C11.7346 8.27533 11.893 8.55033 11.818 8.82533ZM12.5263 6.51699C12.4513 6.72533 12.2596 6.85033 12.0513 6.85033C11.993 6.85033 11.9346 6.84199 11.8763 6.81699C10.6013 6.35033 9.2013 6.35033 7.9263 6.81699C7.65964 6.91699 7.36797 6.78366 7.26797 6.51699C7.1763 6.25866 7.30964 5.96699 7.5763 5.86699C9.0763 5.32533 10.7263 5.32533 12.218 5.86699C12.4846 5.96699 12.618 6.25866 12.5263 6.51699Z" fill="white"/>
</g>
<defs>
<filter id="filter0_b_1164_5484" x="-2.625" y="-3.33301" width="25.2344" height="26.6084" filterUnits="userSpaceOnUse" color-interpolation-filters="sRGB">
<feFlood flood-opacity="0" result="BackgroundImageFix"/>
<feGaussianBlur in="BackgroundImageFix" stdDeviation="2.5"/>
<feComposite in2="SourceAlpha" operator="in" result="effect1_backgroundBlur_1164_5484"/>
<feBlend mode="normal" in="SourceGraphic" in2="effect1_backgroundBlur_1164_5484" result="shape"/>
</filter>
</defs>
</svg>
