<svg width="16" height="16" viewBox="0 0 16 16" fill="none" xmlns="http://www.w3.org/2000/svg">
<g id="microphone">
<g id="vuesax/outline/microphone">
<g id="microphone_2">
<path id="Union" fill-rule="evenodd" clip-rule="evenodd" d="M3.5 8.66732C3.5 11.1473 5.52 13.1673 8 13.1673C10.48 13.1673 12.5 11.1473 12.5 8.66732V5.33398C12.5 2.85398 10.48 0.833984 8 0.833984C5.52 0.833984 3.5 2.85398 3.5 5.33398V8.66732ZM4.5 5.33398C4.5 3.40065 6.07333 1.83398 8 1.83398C9.92667 1.83398 11.5 3.40065 11.5 5.33398V8.66732C11.5 10.6007 9.92667 12.1673 8 12.1673C6.07333 12.1673 4.5 10.6007 4.5 8.66732V5.33398ZM1.5 8.66732C1.5 12.254 4.41333 15.1673 8 15.1673C11.5867 15.1673 14.5 12.254 14.5 8.66732V7.33398C14.5 7.06065 14.2733 6.83398 14 6.83398C13.7267 6.83398 13.5 7.06065 13.5 7.33398V8.66732C13.5 11.7007 11.0333 14.1673 8 14.1673C4.96667 14.1673 2.5 11.7007 2.5 8.66732V7.33398C2.5 7.06065 2.27333 6.83398 2 6.83398C1.72667 6.83398 1.5 7.06065 1.5 7.33398V8.66732ZM9.74122 5.48659C9.68789 5.48659 9.62789 5.47992 9.56789 5.45992C8.49455 5.07326 7.31455 5.07326 6.24122 5.45992C5.98789 5.55326 5.70122 5.41992 5.60789 5.15992C5.51455 4.89992 5.64789 4.61326 5.90789 4.51992C7.20122 4.05326 8.62122 4.05326 9.91455 4.51992C10.1746 4.61326 10.3079 4.89992 10.2146 5.15992C10.1412 5.36659 9.94789 5.48659 9.74122 5.48659ZM8.99865 7.46698C9.04531 7.48031 9.09198 7.48698 9.13198 7.48698C9.35198 7.48698 9.55198 7.34698 9.61865 7.11365C9.69198 6.84698 9.53198 6.57365 9.26531 6.50031C8.37864 6.26031 7.44531 6.26031 6.55864 6.50031C6.29198 6.57365 6.13198 6.84698 6.20531 7.11365C6.27865 7.38031 6.54531 7.54031 6.81864 7.46698C7.53198 7.27365 8.28531 7.27365 8.99865 7.46698Z" fill="white"/>
</g>
</g>
</g>
</svg>
