<svg width="20" height="20" viewBox="0 0 20 20" fill="none" xmlns="http://www.w3.org/2000/svg">
<path opacity="0.4" d="M17.2591 14.5996C16.9508 15.6163 16.3424 16.3996 15.4758 16.8829C15.4424 16.7496 15.4258 16.6079 15.4258 16.4663C15.4258 15.4496 16.2508 14.6163 17.2591 14.5996Z" fill="white"/>
<path d="M17.5013 6.26699V7.89763C17.5013 8.33646 17.1595 8.69067 16.7346 8.80033L14.2763 9.48366C12.9763 9.81699 12.1096 10.942 12.1096 12.2837V13.4352C12.1096 13.9098 11.7642 14.3045 11.3484 14.5333C10.6084 14.9405 10.0362 15.6775 9.77749 16.5155C9.61457 17.0432 9.17859 17.5003 8.6263 17.5003H6.26797C3.39297 17.5003 1.66797 15.7837 1.66797 12.9003V6.26699C1.66797 3.38366 3.39297 1.66699 6.26797 1.66699H12.9013C15.7763 1.66699 17.5013 3.38366 17.5013 6.26699Z" fill="white"/>
<path d="M18.5922 10.2079C18.3755 10.0495 18.0255 9.88286 17.5005 9.93286C17.3672 9.9412 17.2255 9.9662 17.0672 10.0079L14.5839 10.6912C13.8422 10.8829 13.3589 11.5079 13.3589 12.2829V15.5412C13.1672 15.4745 12.9589 15.4329 12.7422 15.4329C11.7089 15.4329 10.8672 16.2662 10.8672 17.2995C10.8672 17.3662 10.8672 17.4329 10.8755 17.4995C10.9755 18.4329 11.7755 19.1662 12.7422 19.1662C13.7589 19.1662 14.5839 18.3412 14.6005 17.3329C14.6005 17.3162 14.6089 17.3079 14.6089 17.2995V14.2245L17.4839 13.4329L17.9172 13.3162V14.7162C17.7255 14.6495 17.5172 14.5995 17.2922 14.5995H17.2589C16.2505 14.6162 15.4255 15.4495 15.4255 16.4662C15.4255 16.6079 15.4422 16.7495 15.4755 16.8829C15.6672 17.7162 16.4089 18.3412 17.2922 18.3412C18.3172 18.3412 19.1422 17.5162 19.1589 16.4995C19.1589 16.4912 19.1672 16.4829 19.1672 16.4662V11.6079C19.1672 10.9745 18.9755 10.5079 18.5922 10.2079ZM12.7422 17.9162C12.4672 17.9162 12.2339 17.7412 12.1589 17.4995C12.1255 17.4412 12.1172 17.3662 12.1172 17.2995C12.1172 16.9579 12.4005 16.6829 12.7422 16.6829C13.0755 16.6829 13.3589 16.9579 13.3589 17.2995C13.3589 17.3662 13.3505 17.4245 13.3255 17.4829C13.2505 17.7329 13.0172 17.9162 12.7422 17.9162ZM17.2922 17.0912C16.9589 17.0912 16.6755 16.8079 16.6755 16.4662C16.6755 16.1329 16.9589 15.8495 17.2922 15.8495C17.6339 15.8495 17.9172 16.1329 17.9172 16.4662C17.9172 16.8079 17.6339 17.0912 17.2922 17.0912Z" fill="white"/>
</svg>
