<?xml version="1.0" encoding="UTF-8"?>
<svg xmlns="http://www.w3.org/2000/svg" xmlns:xlink="http://www.w3.org/1999/xlink" width="50px" height="56px" viewBox="0 0 50 56" version="1.1">
<g id="surface1">
<path style=" stroke:none;fill-rule:nonzero;fill:rgb(100%,100%,100%);fill-opacity:1;" d="M 48.8125 25.085938 C 48.539062 24.808594 48.230469 24.570312 47.890625 24.375 L 6.328125 0.566406 C 3.515625 -1.042969 0 0.96875 0 4.191406 L 0 51.808594 C -0.0078125 52.875 0.402344 53.90625 1.140625 54.679688 C 2.410156 56.007812 4.515625 56.472656 6.328125 55.429688 L 47.890625 31.625 C 48.445312 31.304688 48.921875 30.867188 49.277344 30.335938 C 49.636719 29.808594 49.867188 29.207031 49.957031 28.578125 C 50.046875 27.949219 49.988281 27.304688 49.789062 26.699219 C 49.59375 26.09375 49.257812 25.542969 48.8125 25.085938 Z M 20.566406 34.773438 C 20.578125 35.644531 20.410156 36.515625 20.082031 37.324219 C 19.75 38.132812 19.261719 38.871094 18.640625 39.492188 C 18.019531 40.117188 17.28125 40.609375 16.46875 40.945312 C 15.65625 41.28125 14.785156 41.457031 13.902344 41.457031 C 13.019531 41.457031 12.148438 41.28125 11.335938 40.945312 C 10.519531 40.609375 9.78125 40.117188 9.164062 39.492188 C 8.542969 38.871094 8.054688 38.132812 7.722656 37.324219 C 7.390625 36.515625 7.226562 35.644531 7.234375 34.773438 L 7.234375 21.023438 C 7.253906 19.28125 7.964844 17.617188 9.214844 16.390625 C 10.460938 15.167969 12.144531 14.480469 13.902344 14.480469 C 15.65625 14.480469 17.34375 15.167969 18.589844 16.390625 C 19.839844 17.617188 20.550781 19.28125 20.566406 21.023438 Z M 34.570312 32.59375 C 33.5 33.65625 32.09375 34.316406 30.589844 34.460938 C 29.085938 34.609375 27.578125 34.230469 26.320312 33.398438 C 25.0625 32.566406 24.136719 31.324219 23.699219 29.890625 C 23.261719 28.457031 23.335938 26.914062 23.914062 25.527344 C 24.492188 24.144531 25.539062 23 26.871094 22.292969 C 28.203125 21.585938 29.742188 21.359375 31.226562 21.652344 C 32.707031 21.945312 34.042969 22.738281 35 23.898438 C 35.960938 25.054688 36.484375 26.507812 36.484375 28.007812 C 36.484375 28.859375 36.316406 29.703125 35.988281 30.492188 C 35.660156 31.277344 35.179688 31.992188 34.570312 32.59375 Z M 34.570312 32.59375 "/>
<path style=" stroke:none;fill-rule:nonzero;fill:rgb(100%,100%,100%);fill-opacity:1;" d="M 47.367188 3.402344 C 47.460938 3.273438 47.507812 3.117188 47.507812 2.957031 C 47.507812 2.820312 47.472656 2.683594 47.402344 2.5625 C 47.332031 2.4375 47.222656 2.339844 47.089844 2.28125 C 46.933594 2.207031 46.761719 2.171875 46.585938 2.175781 L 45.5625 2.175781 L 45.5625 4.660156 L 46.171875 4.660156 L 46.171875 3.722656 L 46.320312 3.722656 L 46.84375 4.660156 L 47.53125 4.660156 L 46.953125 3.675781 C 47.117188 3.632812 47.261719 3.535156 47.367188 3.402344 Z M 46.800781 3.214844 C 46.734375 3.273438 46.640625 3.300781 46.550781 3.296875 L 46.171875 3.296875 L 46.171875 2.679688 L 46.550781 2.679688 C 46.640625 2.671875 46.734375 2.699219 46.800781 2.757812 C 46.832031 2.789062 46.851562 2.824219 46.867188 2.863281 C 46.882812 2.898438 46.886719 2.941406 46.886719 2.980469 C 46.890625 3.023438 46.882812 3.066406 46.867188 3.105469 C 46.855469 3.144531 46.832031 3.183594 46.800781 3.214844 Z M 46.800781 3.214844 "/>
<path style=" stroke:none;fill-rule:nonzero;fill:rgb(100%,100%,100%);fill-opacity:1;" d="M 46.492188 0 C 45.800781 0 45.121094 0.203125 44.546875 0.585938 C 43.96875 0.96875 43.519531 1.511719 43.253906 2.148438 C 42.988281 2.78125 42.917969 3.480469 43.054688 4.15625 C 43.191406 4.832031 43.523438 5.453125 44.015625 5.9375 C 44.503906 6.425781 45.128906 6.757812 45.808594 6.890625 C 46.488281 7.023438 47.195312 6.957031 47.835938 6.691406 C 48.476562 6.429688 49.023438 5.984375 49.410156 5.410156 C 49.792969 4.839844 50 4.167969 50 3.480469 C 50 2.558594 49.628906 1.671875 48.972656 1.019531 C 48.316406 0.367188 47.421875 0 46.492188 0 Z M 46.492188 6.023438 C 45.988281 6.023438 45.492188 5.875 45.070312 5.59375 C 44.648438 5.3125 44.320312 4.917969 44.125 4.453125 C 43.929688 3.988281 43.878906 3.476562 43.980469 2.984375 C 44.078125 2.488281 44.320312 2.035156 44.679688 1.679688 C 45.039062 1.324219 45.496094 1.082031 45.992188 0.984375 C 46.492188 0.886719 47.007812 0.9375 47.472656 1.128906 C 47.941406 1.320312 48.34375 1.648438 48.625 2.066406 C 48.90625 2.484375 49.058594 2.976562 49.058594 3.480469 C 49.054688 4.152344 48.785156 4.800781 48.304688 5.277344 C 47.824219 5.753906 47.171875 6.019531 46.492188 6.023438 Z M 46.492188 6.023438 "/>
</g>
</svg>
