<?xml version="1.0" encoding="UTF-8"?>
<svg xmlns="http://www.w3.org/2000/svg" xmlns:xlink="http://www.w3.org/1999/xlink" width="50px" height="56px" viewBox="0 0 50 56" version="1.1">
<defs>
<radialGradient id="radial0" gradientUnits="userSpaceOnUse" cx="0" cy="0" fx="0" fy="0" r="1" gradientTransform="matrix(50.058961,56.294451,-60.670105,53.179261,30.543673,45.471387)">
<stop offset="0.15" style="stop-color:rgb(100%,77.254902%,25.882353%);stop-opacity:1;"/>
<stop offset="0.44" style="stop-color:rgb(99.607843%,24.313725%,38.823529%);stop-opacity:1;"/>
<stop offset="0.71" style="stop-color:rgb(53.333333%,20.784314%,100%);stop-opacity:1;"/>
<stop offset="0.91" style="stop-color:rgb(10.588235%,83.921569%,100%);stop-opacity:1;"/>
</radialGradient>
</defs>
<g id="surface1">
<path style=" stroke:none;fill-rule:nonzero;fill:url(#radial0);" d="M 48.765625 25.074219 C 48.492188 24.800781 48.183594 24.5625 47.84375 24.367188 L 6.324219 0.566406 C 3.511719 -1.042969 0 0.96875 0 4.191406 L 0 51.792969 C -0.0078125 52.859375 0.402344 53.886719 1.140625 54.660156 C 2.40625 55.984375 4.511719 56.453125 6.324219 55.414062 L 47.84375 31.613281 C 48.398438 31.296875 48.871094 30.855469 49.230469 30.328125 C 49.585938 29.800781 49.820312 29.199219 49.90625 28.566406 C 49.996094 27.9375 49.941406 27.296875 49.742188 26.691406 C 49.542969 26.085938 49.210938 25.535156 48.765625 25.074219 Z M 20.546875 34.761719 C 20.546875 36.515625 19.84375 38.195312 18.59375 39.4375 C 17.347656 40.675781 15.652344 41.371094 13.886719 41.371094 C 12.121094 41.371094 10.425781 40.675781 9.175781 39.4375 C 7.925781 38.195312 7.226562 36.515625 7.226562 34.761719 L 7.226562 21.015625 C 7.226562 19.261719 7.925781 17.582031 9.175781 16.34375 C 10.425781 15.101562 12.121094 14.40625 13.886719 14.40625 C 15.652344 14.40625 17.347656 15.101562 18.59375 16.34375 C 19.84375 17.582031 20.546875 19.261719 20.546875 21.015625 Z M 34.535156 32.585938 C 33.464844 33.644531 32.0625 34.304688 30.558594 34.449219 C 29.058594 34.597656 27.550781 34.222656 26.292969 33.386719 C 25.039062 32.554688 24.113281 31.316406 23.675781 29.882812 C 23.238281 28.445312 23.316406 26.90625 23.894531 25.519531 C 24.46875 24.136719 25.515625 22.992188 26.84375 22.285156 C 28.175781 21.582031 29.714844 21.355469 31.195312 21.644531 C 32.675781 21.9375 34.007812 22.730469 34.964844 23.890625 C 35.925781 25.046875 36.449219 26.5 36.449219 28 C 36.449219 28.851562 36.28125 29.695312 35.953125 30.480469 C 35.625 31.269531 35.144531 31.984375 34.535156 32.585938 Z M 34.535156 32.585938 "/>
</g>
</svg>
