<svg width="8" height="14" viewBox="0 0 8 14" fill="none" xmlns="http://www.w3.org/2000/svg">
<path d="M0.639695 5.58812H6.50491C6.74229 5.58812 6.96002 5.45661 7.07078 5.24689C7.1814 5.03672 7.16684 4.78321 7.03271 4.58691L4.06396 0.249056C3.95768 0.0937921 3.78172 0.000842766 3.59351 1.71129e-06C3.40549 -0.000457046 3.22897 0.0913454 3.12183 0.24615L0.113933 4.58408C-0.0216295 4.77951 -0.0374055 5.03428 0.0729766 5.24523C0.183359 5.45582 0.401676 5.58812 0.639695 5.58812Z" fill="white"/>
<path d="M6.5049 7.98242H0.639686C0.401668 7.98242 0.18335 8.11477 0.0729683 8.32534C-0.0374138 8.5363 -0.0216123 8.79106 0.113925 8.98644L3.12182 13.3244C3.22896 13.4792 3.40548 13.571 3.5935 13.5706C3.78171 13.5698 3.95767 13.4767 4.06395 13.3215L7.0327 8.98358C7.16683 8.78736 7.18139 8.5338 7.07077 8.32361C6.96001 8.11393 6.74228 7.98242 6.5049 7.98242Z" fill="white"/>
</svg>
