<svg width="14" height="14" viewBox="0 0 14 14" fill="none" xmlns="http://www.w3.org/2000/svg">
<path d="M7.56857 3.45839L8.32024 4.96172C8.42274 5.16672 8.69607 5.37172 8.92385 5.40588L10.2848 5.63366C11.1561 5.78171 11.3611 6.40811 10.7347 7.0345L9.67552 8.09366C9.49899 8.27019 9.39648 8.61755 9.45343 8.86811L9.75525 10.1835C9.99442 11.2199 9.44205 11.6242 8.52525 11.0832L7.24968 10.3259C7.01621 10.1892 6.64038 10.1892 6.40691 10.3259L5.13135 11.0832C4.21454 11.6242 3.66218 11.2199 3.90134 10.1835L4.20317 8.86811C4.26011 8.62325 4.1576 8.27588 3.98107 8.09366L2.92192 7.0345C2.29553 6.40811 2.50051 5.77602 3.37176 5.63366L4.73274 5.40588C4.96052 5.36602 5.23385 5.16672 5.33635 4.96172L6.08802 3.45839C6.49233 2.64408 7.16426 2.64408 7.56857 3.45839Z" stroke="#FFC950" stroke-width="0.854167" stroke-linecap="round" stroke-linejoin="round"/>
</svg>
