<svg width="16" height="16" viewBox="0 0 16 16" fill="none" xmlns="http://www.w3.org/2000/svg">
<g id="timer">
<g id="vuesax/outline/timer">
<g id="timer_2">
<path id="Vector" d="M10.1592 15.1673H5.83923C4.57923 15.1673 3.65923 14.6407 3.3059 13.734C2.93923 12.7873 3.27923 11.614 4.15923 10.8207L7.25256 8.00065L4.15923 5.18065C3.27923 4.38732 2.93923 3.21398 3.3059 2.26732C3.65923 1.35398 4.57923 0.833984 5.83923 0.833984H10.1592C11.4192 0.833984 12.3392 1.36065 12.6926 2.26732C13.0592 3.21398 12.7192 4.38732 11.8392 5.18065L8.7459 8.00065L11.8459 10.8207C12.7192 11.614 13.0659 12.7873 12.6992 13.734C12.3392 14.6407 11.4192 15.1673 10.1592 15.1673ZM7.99923 8.67398L4.83256 11.554C4.27256 12.0673 4.0259 12.814 4.23923 13.3673C4.43923 13.8807 5.0059 14.1673 5.83923 14.1673H10.1592C10.9926 14.1673 11.5592 13.8873 11.7592 13.3673C11.9726 12.814 11.7326 12.0673 11.1659 11.554L7.99923 8.67398ZM5.83923 1.83398C5.0059 1.83398 4.43923 2.11398 4.23923 2.63398C4.0259 3.18732 4.2659 3.93398 4.83256 4.44732L7.99923 7.32732L11.1659 4.44732C11.7259 3.93398 11.9726 3.18732 11.7592 2.63398C11.5592 2.12065 10.9926 1.83398 10.1592 1.83398H5.83923Z" fill="white"/>
</g>
</g>
</g>
</svg>
