<svg width="16" height="16" viewBox="0 0 16 16" fill="none" xmlns="http://www.w3.org/2000/svg">
<path fill-rule="evenodd" clip-rule="evenodd" d="M10.0026 15.1654H6.0026C2.3826 15.1654 0.835938 13.6187 0.835938 9.9987V5.9987C0.835938 2.3787 2.3826 0.832031 6.0026 0.832031H10.0026C13.6226 0.832031 15.1693 2.3787 15.1693 5.9987V9.9987C15.1693 13.6187 13.6226 15.1654 10.0026 15.1654ZM5.17969 1.86238C3.33063 2.00982 2.36728 2.7074 2.00649 4.23828H5.17969V1.86238ZM6.17969 1.83203H9.82031V4.23828H6.17969V1.83203ZM10.8203 4.23828V1.86197C12.6728 2.00851 13.6376 2.70596 13.9987 4.23828H10.8203ZM14.1437 5.23828H1.86154C1.84427 5.47705 1.83594 5.73032 1.83594 5.9987V9.9987C1.83594 13.072 2.92927 14.1654 6.0026 14.1654H10.0026C13.0759 14.1654 14.1693 13.072 14.1693 9.9987V5.9987C14.1693 5.73032 14.1609 5.47705 14.1437 5.23828ZM6.72 11.9055C6.92667 12.0189 7.15333 12.0789 7.39333 12.0789C7.70667 12.0789 8.04 11.9855 8.36 11.7989L9.74667 10.9989C10.3333 10.6655 10.6733 10.1655 10.6733 9.6322C10.6733 9.09887 10.3333 8.59887 9.75333 8.26553L8.36667 7.46553C7.78667 7.12553 7.18667 7.08553 6.72667 7.3522C6.26667 7.61887 6 8.15887 6 8.8322V10.4322C6 11.1055 6.26667 11.6389 6.72 11.9055ZM7.22667 8.21887C7.27333 8.1922 7.33333 8.17887 7.4 8.17887C7.52667 8.17887 7.69333 8.2322 7.86667 8.3322L9.25333 9.1322C9.52 9.28553 9.67333 9.4722 9.67333 9.6322C9.67333 9.7922 9.51333 9.97887 9.25333 10.1322L7.86667 10.9322C7.60667 11.0855 7.36667 11.1255 7.22667 11.0455C7.08667 10.9589 7 10.7322 7 10.4322V8.8322C7 8.52553 7.08667 8.29887 7.22667 8.21887Z" fill="url(#paint0_radial_1361_7695)"/>
<defs>
<stop stop-color="#FEDC8F"/>
<stop offset="0.420236" stop-color="#F16681"/>
<stop offset="0.707757" stop-color="#A76DFA"/>
<stop offset="0.910465" stop-color="#33D6FA"/>
</radialGradient>
</defs>
</svg>
