<svg width="16" height="16" viewBox="0 0 16 16" fill="none" xmlns="http://www.w3.org/2000/svg">
<path fill-rule="evenodd" clip-rule="evenodd" d="M6.0026 15.1654H10.0026C13.6226 15.1654 15.1693 13.6187 15.1693 9.9987V5.9987C15.1693 2.3787 13.6226 0.832031 10.0026 0.832031H6.0026C2.3826 0.832031 0.835938 2.3787 0.835938 5.9987V9.9987C0.835938 13.6187 2.3826 15.1654 6.0026 15.1654ZM1.83594 5.9987C1.83594 2.92536 2.92927 1.83203 6.0026 1.83203H10.0026C13.0759 1.83203 14.1693 2.92536 14.1693 5.9987V9.9987C14.1693 13.072 13.0759 14.1654 10.0026 14.1654H6.0026C2.92927 14.1654 1.83594 13.072 1.83594 9.9987V5.9987ZM8 11.8327C7.72667 11.8327 7.5 11.606 7.5 11.3327V4.66602C7.5 4.39268 7.72667 4.16602 8 4.16602C8.27333 4.16602 8.5 4.39268 8.5 4.66602V11.3327C8.5 11.606 8.27333 11.8327 8 11.8327ZM5.5 10.3792C5.5 10.6525 5.72667 10.8792 6 10.8792C6.27333 10.8792 6.5 10.6592 6.5 10.3792V5.61914C6.5 5.34581 6.27333 5.11914 6 5.11914C5.72667 5.11914 5.5 5.34581 5.5 5.61914V10.3792ZM3.5 9.42643C3.5 9.69977 3.72667 9.92643 4 9.92643C4.27333 9.92643 4.5 9.70643 4.5 9.42643V6.56641C4.5 6.29307 4.27333 6.06641 4 6.06641C3.72667 6.06641 3.5 6.29307 3.5 6.56641V9.42643ZM9.5 10.3792C9.5 10.6525 9.72667 10.8792 10 10.8792C10.2733 10.8792 10.5 10.6592 10.5 10.3792V5.61914C10.5 5.34581 10.2733 5.11914 10 5.11914C9.72667 5.11914 9.5 5.34581 9.5 5.61914V10.3792ZM12 9.92643C11.7267 9.92643 11.5 9.69977 11.5 9.42643V6.56641C11.5 6.29307 11.7267 6.06641 12 6.06641C12.2733 6.06641 12.5 6.29307 12.5 6.56641V9.42643C12.5 9.70643 12.2733 9.92643 12 9.92643Z" fill="white"/>
</svg>
