<?xml version="1.0" standalone="no"?>
<!DOCTYPE svg PUBLIC "-//W3C//DTD SVG 20010904//EN"
 "http://www.w3.org/TR/2001/REC-SVG-20010904/DTD/svg10.dtd">
<svg version="1.0" xmlns="http://www.w3.org/2000/svg"
 width="256.000000pt" height="256.000000pt" viewBox="0 0 256.000000 256.000000"
 preserveAspectRatio="xMidYMid meet">
<metadata>
Created by potrace 1.14, written by Peter Selinger 2001-2017
</metadata>
<g transform="translate(0.000000,256.000000) scale(0.100000,-0.100000)"
fill="#000000" stroke="none">
<path d="M70 2538 c-18 -13 -42 -38 -52 -56 -17 -32 -18 -83 -16 -1212 3
-1174 3 -1179 24 -1207 11 -15 36 -36 55 -45 32 -17 110 -18 1205 -18 l1171 0
34 23 c74 49 69 -44 69 1263 l0 1171 -23 34 c-49 74 44 69 -1263 69 l-1171 0
-33 -22z"/>
</g>
</svg>
